<svg viewBox="0 0 37.5 37.5" fill="none" xmlns="http://www.w3.org/2000/svg" xmlns:xlink="http://www.w3.org/1999/xlink" x="0" y="0"><g id="Vector_9">
<path fill-rule="evenodd" clip-rule="evenodd" d="M1.25,0c0.69,0 1.25,0.56 1.25,1.25v33.75h33.75c0.69,0 1.25,0.56 1.25,1.25c0,0.69 -0.56,1.25 -1.25,1.25h-33.75c-0.663,0 -1.299,-0.26 -1.768,-0.73c-0.469,-0.47 -0.732,-1.11 -0.732,-1.77v-33.75c0,-0.69 0.56,-1.25 1.25,-1.25z" fill="currentColor"/>
<path fill-rule="evenodd" clip-rule="evenodd" d="M7.812,17.5c-0.172,0 -0.312,0.14 -0.312,0.31v11.88c0,0.17 0.14,0.31 0.312,0.31h3.126c0.172,0 0.312,-0.14 0.312,-0.31v-11.88c0,-0.17 -0.14,-0.31 -0.312,-0.31zM5,17.81c0,-1.55 1.259,-2.81 2.812,-2.81h3.126c1.553,0 2.812,1.26 2.812,2.81v11.88c0,1.55 -1.259,2.81 -2.812,2.81h-3.126c-1.553,0 -2.812,-1.26 -2.812,-2.81z" fill="currentColor"/>
<path fill-rule="evenodd" clip-rule="evenodd" d="M19.062,13.75c-0.172,0 -0.312,0.14 -0.312,0.31v15.63c0,0.17 0.14,0.31 0.312,0.31h3.126c0.172,0 0.312,-0.14 0.312,-0.31v-15.63c0,-0.17 -0.14,-0.31 -0.312,-0.31zM16.25,14.06c0,-1.55 1.259,-2.81 2.812,-2.81h3.126c1.553,0 2.812,1.26 2.812,2.81v15.63c0,1.55 -1.259,2.81 -2.812,2.81h-3.126c-1.553,0 -2.812,-1.26 -2.812,-2.81z" fill="currentColor"/>
<path fill-rule="evenodd" clip-rule="evenodd" d="M30.284,8.75c-0.172,0 -0.312,0.14 -0.312,0.31v20.63c0,0.17 0.14,0.31 0.312,0.31h3.125c0.173,0 0.313,-0.14 0.313,-0.31v-20.63c0,-0.17 -0.14,-0.31 -0.313,-0.31zM27.472,9.06c0,-1.55 1.259,-2.81 2.812,-2.81h3.125c1.554,0 2.813,1.26 2.813,2.81v20.63c0,1.55 -1.259,2.81 -2.813,2.81h-3.125c-1.553,0 -2.812,-1.26 -2.812,-2.81z" fill="currentColor"/>
</g></svg>