<svg viewBox="0 0 161.5854 177.8645" fill="none" xmlns="http://www.w3.org/2000/svg" xmlns:xlink="http://www.w3.org/1999/xlink" x="0" y="0"><g id="content creation">
<path id="Vector 8" d="M89.8257,61.0121l-11.597,7.88c-1.601,1.08 -3.767,-0.06 -3.767,-2v-3.89c0,-1.33 -1.08,-2.41 -2.412,-2.41h-16.58c-1.332,0 -2.412,-1.08 -2.412,-2.41v-50.34c0,-1.34 1.08,-2.42 2.412,-2.42h51.249c1.332,0 2.412,1.08 2.412,2.42v50.34c0,1.33 -1.08,2.41 -2.412,2.41h-15.538c-0.483,0 -0.955,0.15 -1.355,0.42z" stroke="#141414" stroke-width="1.40124"/>
<path id="Vector 9" d="M98.2777,5.4221l-14.169,12.97l14.47,14.47l10.552,-11.46" stroke="#141414" stroke-width="1.40124"/>
<path id="Vector 10" d="M85.9177,20.2021l-3.316,1.2l-9.346,22.61l22.61,-9.95v-3.92" stroke="#141414" stroke-width="1.40124"/>
<path id="Vector 11" d="M132.0077,36.1121l4.712,-6.36c0.505,-0.68 1.537,-0.64 1.989,0.08l3.915,6.21c0.173,0.28 0.45,0.47 0.768,0.54l5.9,1.27c0.908,0.19 1.264,1.3 0.641,1.98l-4.013,4.44c-0.201,0.22 -0.312,0.51 -0.312,0.81v7.19c0,0.83 -0.817,1.41 -1.6,1.14l-5.864,-2.03c-0.243,-0.09 -0.507,-0.09 -0.752,-0.02l-6.801,2.11c-0.776,0.25 -1.564,-0.33 -1.564,-1.15v-7.26c0,-0.29 -0.103,-0.57 -0.29,-0.78l-3.828,-4.47c-0.593,-0.69 -0.235,-1.76 0.654,-1.96l5.738,-1.28c0.283,-0.06 0.535,-0.22 0.707,-0.46z" stroke="#141414" stroke-width="1.40124"/>
<path id="Vector 12" d="M112.7477,76.8721h-12.058c-0.666,0 -1.206,0.54 -1.206,1.21v31.95c0,0.67 0.54,1.21 1.206,1.21h54.866c0.666,0 1.206,-0.54 1.206,-1.21v-31.95c0,-0.67 -0.54,-1.21 -1.206,-1.21h-10.756c-0.432,0 -0.832,-0.23 -1.047,-0.61l-2.923,-5.11c-0.214,-0.38 -0.614,-0.61 -1.047,-0.61h-17.229c-0.466,0 -0.889,0.27 -1.089,0.69l-2.36,4.95c-0.2,0.42 -0.624,0.69 -1.089,0.69zM112.7477,76.8721v7.24" stroke="#141414" stroke-width="1.40124"/>
<path id="Ellipse 6" d="M131.1377,86.9221c6.787,0 12.262,5.37 12.262,11.96c0,6.59 -5.474,11.96 -12.262,11.96c-6.788,0 -12.263,-5.37 -12.263,-11.96c0,-6.59 5.475,-11.96 12.263,-11.96z" stroke="#141414" stroke-width="1.40124"/>
<path id="Vector 13" d="M52.1537,73.8621h11.757" stroke="#141414" stroke-width="1.40124"/>
<path id="Vector 15" d="M51.8517,98.8821h8.441" stroke="#141414" stroke-width="1.40124"/>
<path id="Vector 16" d="M65.7197,98.8821h8.441" stroke="#141414" stroke-width="1.40124"/>
<path id="Vector 17" d="M79.5867,98.8821h8.441" stroke="#141414" stroke-width="1.40124"/>
<path id="Vector 18" d="M74.1607,111.5421h13.867" stroke="#141414" stroke-width="1.40124"/>
<path id="Vector 14" d="M51.8517,86.2221h36.176" stroke="#141414" stroke-width="1.40124"/>
<path id="Vector 19" d="M15.0737,92.8521v-18.39M40.6977,86.5221v-18.39M15.0737,74.4621v-12.06l25.624,-6.87v12.6M15.0737,74.4621l25.624,-6.33" stroke="#141414" stroke-width="1.40124"/>
<path id="Ellipse 7" d="M9.3447,89.9321c3.415,0 6.234,2.9 6.234,6.54c0,3.63 -2.819,6.53 -6.234,6.53c-3.414,0 -6.233,-2.9 -6.233,-6.53c0,-3.64 2.819,-6.54 6.233,-6.54z" stroke="#141414" stroke-width="1.40124"/>
<path id="Ellipse 8" d="M34.6687,82.7021c3.414,0 6.233,2.89 6.233,6.53c0,3.64 -2.819,6.54 -6.233,6.54c-3.415,0 -6.234,-2.9 -6.234,-6.54c0,-3.64 2.819,-6.53 6.234,-6.53z" stroke="#141414" stroke-width="1.40124"/>
<path id="Vector 20" d="M18.3897,130.8321v37.08c0,1.34 1.08,2.42 2.411,2.42h39.492c1.332,0 2.412,-1.08 2.412,-2.42v-54.56c0,-1.33 -1.08,-2.41 -2.412,-2.41h-22.609M18.3897,130.8321l19.294,-19.89M18.3897,130.8321h16.882c1.332,0 2.412,-1.08 2.412,-2.41v-17.48M33.1617,142.2921h15.073" stroke="#141414" stroke-width="1.40124"/>
<path id="Vector 21" d="M128.7257,123.9021h-51.249c-1.332,0 -2.412,1.08 -2.412,2.41v41.6c0,1.34 1.08,2.42 2.412,2.42h51.249c1.332,0 2.412,-1.08 2.412,-2.42v-41.6c0,-1.33 -1.08,-2.41 -2.412,-2.41z" stroke="#141414" stroke-width="1.40124"/>
<path id="Vector 22" d="M40.3967,142.5921v12.36" stroke="#141414" stroke-width="1.40124"/>
</g></svg>