<svg viewBox="0 0 32.5 32.5" fill="none" xmlns="http://www.w3.org/2000/svg" xmlns:xlink="http://www.w3.org/1999/xlink" x="0" y="0"><g id="Vector_7">
<path fill-rule="evenodd" clip-rule="evenodd" d="M0,16.25c0,-8.97 7.278,-16.25 16.25,-16.25c8.972,0 16.25,7.28 16.25,16.25c0,8.97 -7.278,16.25 -16.25,16.25c-8.972,0 -16.25,-7.28 -16.25,-16.25zM16.25,2.5c-7.591,0 -13.75,6.16 -13.75,13.75c0,7.59 6.159,13.75 13.75,13.75c7.591,0 13.75,-6.16 13.75,-13.75c0,-7.59 -6.159,-13.75 -13.75,-13.75z" fill="currentColor"/>
<path fill-rule="evenodd" clip-rule="evenodd" d="M16.25,5c0.69,0 1.25,0.56 1.25,1.25v10h6.25c0.69,0 1.25,0.56 1.25,1.25c0,0.69 -0.56,1.25 -1.25,1.25h-7.5c-0.69,0 -1.25,-0.56 -1.25,-1.25v-11.25c0,-0.69 0.56,-1.25 1.25,-1.25z" fill="currentColor"/>
</g></svg>