<svg viewBox="0 0 35 35" fill="none" xmlns="http://www.w3.org/2000/svg" xmlns:xlink="http://www.w3.org/1999/xlink" x="0" y="0"><g id="Vector_10">
<path fill-rule="evenodd" clip-rule="evenodd" d="M3.121,0h0.004h21.25h0.004c0.827,0 1.619,0.33 2.204,0.92c0.585,0.58 0.915,1.37 0.917,2.2v0v26.87h-2.5v-26.86c-0.001,-0.17 -0.067,-0.33 -0.185,-0.45c-0.117,-0.11 -0.276,-0.18 -0.442,-0.18h-21.246c-0.166,0 -0.325,0.07 -0.442,0.18c-0.118,0.12 -0.184,0.28 -0.185,0.45v27.49c0.002,0.5 0.2,0.98 0.552,1.33c0.352,0.35 0.828,0.55 1.325,0.55h25.623v2.5h-25.625h-0.004c-1.158,0 -2.268,-0.47 -3.087,-1.28c-0.819,-0.82 -1.281,-1.93 -1.284,-3.09v-0.01v-27.5v0c0.002,-0.83 0.332,-1.62 0.917,-2.2c0.585,-0.59 1.377,-0.92 2.204,-0.92z" fill="currentColor"/>
<path fill-rule="evenodd" clip-rule="evenodd" d="M25,7.5c0,-0.69 0.56,-1.25 1.25,-1.25h5.625c0.829,0 1.624,0.33 2.21,0.92c0.586,0.58 0.915,1.38 0.915,2.21v20.62c0,1.33 -0.527,2.6 -1.464,3.54c-0.938,0.93 -2.21,1.46 -3.536,1.46c-1.326,0 -2.598,-0.53 -3.536,-1.46c-0.937,-0.94 -1.464,-2.21 -1.464,-3.54zM27.5,8.75v21.25c0,0.66 0.263,1.3 0.732,1.77c0.469,0.47 1.105,0.73 1.768,0.73c0.663,0 1.299,-0.26 1.768,-0.73c0.469,-0.47 0.732,-1.11 0.732,-1.77v-20.62c0,-0.17 -0.066,-0.33 -0.183,-0.45c-0.117,-0.11 -0.276,-0.18 -0.442,-0.18z" fill="currentColor"/>
<path fill-rule="evenodd" clip-rule="evenodd" d="M15,7.5c0,-0.69 0.56,-1.25 1.25,-1.25h5c0.69,0 1.25,0.56 1.25,1.25c0,0.69 -0.56,1.25 -1.25,1.25h-5c-0.69,0 -1.25,-0.56 -1.25,-1.25z" fill="currentColor"/>
<path fill-rule="evenodd" clip-rule="evenodd" d="M15,12.5c0,-0.69 0.56,-1.25 1.25,-1.25h5c0.69,0 1.25,0.56 1.25,1.25c0,0.69 -0.56,1.25 -1.25,1.25h-5c-0.69,0 -1.25,-0.56 -1.25,-1.25z" fill="currentColor"/>
<path fill-rule="evenodd" clip-rule="evenodd" d="M5,17.5c0,-0.69 0.56,-1.25 1.25,-1.25h15c0.69,0 1.25,0.56 1.25,1.25c0,0.69 -0.56,1.25 -1.25,1.25h-15c-0.69,0 -1.25,-0.56 -1.25,-1.25z" fill="currentColor"/>
<path fill-rule="evenodd" clip-rule="evenodd" d="M5,22.5c0,-0.69 0.56,-1.25 1.25,-1.25h15c0.69,0 1.25,0.56 1.25,1.25c0,0.69 -0.56,1.25 -1.25,1.25h-15c-0.69,0 -1.25,-0.56 -1.25,-1.25z" fill="currentColor"/>
<path fill-rule="evenodd" clip-rule="evenodd" d="M5,27.5c0,-0.69 0.56,-1.25 1.25,-1.25h15c0.69,0 1.25,0.56 1.25,1.25c0,0.69 -0.56,1.25 -1.25,1.25h-15c-0.69,0 -1.25,-0.56 -1.25,-1.25z" fill="currentColor"/>
<path d="M11.25,13.75h-5c-0.332,0 -0.649,-0.13 -0.884,-0.37c-0.234,-0.23 -0.366,-0.55 -0.366,-0.88v-5c0,-0.33 0.132,-0.65 0.366,-0.88c0.235,-0.24 0.552,-0.37 0.884,-0.37h5c0.332,0 0.649,0.13 0.884,0.37c0.234,0.23 0.366,0.55 0.366,0.88v5c0,0.33 -0.132,0.65 -0.366,0.88c-0.235,0.24 -0.552,0.37 -0.884,0.37z" fill="currentColor"/>
</g></svg>