<svg viewBox="0 0 149 175" fill="none" xmlns="http://www.w3.org/2000/svg" xmlns:xlink="http://www.w3.org/1999/xlink" x="0" y="0"><defs><clipPath id="clip7_70_1603">
<rect width="149" height="175" fill="white" transform="translate(0.005000000000109139, 0)"/>
</clipPath></defs><g id="social media mangment" clip-path="url(#clip7_70_1603)">
<path id="Vector 2" d="M90.095,50.73l-11.79,4.45c-0.39,0.15 -0.78,-0.19 -0.7,-0.59l0.93,-4.45c0.4,-1.9 -0.76,-3.77 -2.63,-4.27l-3.26,-0.88c-1.95,-0.52 -3.11,-2.52 -2.58,-4.46l8.23,-30.73c0.52,-1.95 2.52,-3.11 4.47,-2.58l40.56,10.86c1.95,0.52 3.1,2.53 2.58,4.47l-8.43,31.46c-0.53,1.97 -2.57,3.13 -4.54,2.56l-20.54,-5.93c-0.76,-0.22 -1.56,-0.18 -2.3,0.09z" stroke="#141414" stroke-width="1.36022"/>
<path id="Vector 3" d="M128.765,41.7h5.99c4.61,0 8.34,3.74 8.34,8.35v91.22c0,4.61 -3.73,8.35 -8.34,8.35h-120.16c-4.6,0 -8.34,-3.74 -8.34,-8.35v-91.22c0,-4.61 3.74,-8.35 8.34,-8.35h6.78M115.205,83.67l-7.55,33.62M95.135,83.67l-9.01,33.62M82.365,93.05h41.71M78.975,108.69h42.49" stroke="#141414" stroke-width="1.36022"/>
<path id="Vector 4" d="M58.385,149.62v20.33" stroke="#141414" stroke-width="1.36022"/>
<path id="Vector 5" d="M40.925,169.95h68.03" stroke="#141414" stroke-width="1.36022"/>
<path id="Vector 6" d="M90.965,149.88v20.07" stroke="#141414" stroke-width="1.36022"/>
<path id="Vector 7" d="M6.255,131.11h137.1" stroke="#141414" stroke-width="1.36022"/>
<path id="Vector_3" d="M27.795,67.82c4,-3.33 10.14,-4.28 17.13,-0.08l0.61,0.36l0.34,-0.62c3.93,-7.16 9.71,-9.45 14.83,-8.6c5.17,0.85 9.81,4.92 11.39,10.76c1.59,5.89 0.39,11.07 -1.95,15.77c-2.35,4.73 -5.81,8.92 -8.74,12.86v0c-1.03,1.39 -2.01,2.69 -3.03,3.73c-1.02,1.05 -2.04,1.77 -3.13,2.07c-1.08,0.29 -2.33,0.18 -3.73,-0.2c-1.41,-0.38 -2.91,-1.01 -4.5,-1.69v0c-4.51,-1.92 -9.61,-3.78 -14.02,-6.67c-4.38,-2.88 -8.02,-6.74 -9.61,-12.63c-1.58,-5.84 0.38,-11.7 4.41,-15.06z" stroke="#141414" stroke-width="1.36022"/>
<path id="Vector_4" d="M27.405,5.86c0.28,-0.21 0.61,-0.35 1.03,-0.41c0.36,-0.05 0.71,0.02 1.08,0.23h0.01l10.93,6.21l0.36,0.2l0.34,-0.22l10.66,-6.85c0.45,-0.25 0.81,-0.33 1.1,-0.31c0.34,0.02 0.67,0.13 1.02,0.34c0.32,0.21 0.55,0.48 0.72,0.83c0.15,0.31 0.2,0.68 0.11,1.13l-2.53,12.42l-0.08,0.4l0.32,0.26l9.78,8.02c0.34,0.28 0.52,0.59 0.59,0.91c0.09,0.39 0.08,0.77 -0.02,1.14c-0.09,0.35 -0.27,0.65 -0.56,0.93c-0.27,0.24 -0.6,0.39 -1.03,0.43h-0.02l-12.52,1.45l-0.41,0.05l-0.15,0.38l-4.58,11.79l-0.01,0.01v0c-0.15,0.41 -0.37,0.69 -0.68,0.89c-0.33,0.22 -0.67,0.32 -1.02,0.31c-0.39,0 -0.76,-0.09 -1.12,-0.27c-0.29,-0.14 -0.53,-0.4 -0.72,-0.81l-5.24,-11.52l-0.18,-0.37l-0.4,-0.03l-12.61,-0.7v0c-0.46,-0.03 -0.81,-0.18 -1.08,-0.4c-0.29,-0.25 -0.49,-0.55 -0.6,-0.91c-0.13,-0.38 -0.15,-0.74 -0.08,-1.07c0.06,-0.29 0.23,-0.62 0.59,-0.99l9.3,-8.6l0.3,-0.28l-0.1,-0.39l-3.21,-12.19v-0.01c-0.11,-0.41 -0.08,-0.77 0.06,-1.11c0.16,-0.39 0.38,-0.68 0.65,-0.89z" stroke="#141414" stroke-width="1.36022"/>
</g></svg>