<svg viewBox="0 0 208.8737 170" fill="none" xmlns="http://www.w3.org/2000/svg" xmlns:xlink="http://www.w3.org/1999/xlink" x="0" y="0"><g id="marketing stratgey">
<path id="Vector 28" d="M133.4469,16.83l-66.723,37.13v42.06l66.723,37.43" stroke="#141414" stroke-width="1.70942"/>
<rect id="Rectangle 54" x="134.3039" y="8.400000000000091" width="18.0174" height="133.478" rx="9.00872" stroke="#141414" stroke-width="1.70942"/>
<path id="Vector 29" d="M153.1779,55.12c5.511,0.58 16.245,5.45 15.085,20.31c-1.161,14.85 -10.541,20.11 -15.085,20.88M174.3549,60.63l17.116,-16.53M179.8669,75.43h25.239M174.3549,89.64l17.116,17.41M66.7269,96.31h-28.72l10.725,58.5c1.182,6.45 6.799,11.13 13.352,11.13c8.365,0 14.74,-7.5 13.398,-15.75z" stroke="#141414" stroke-width="1.70942"/>
<path id="Vector 30" d="M85.5829,106.76c0.29,3.77 -2.147,11.83 -14.215,13.92" stroke="#141414" stroke-width="1.70942"/>
<path id="Rectangle 55" d="M37.7149,53.65h28.155v41.81h-28.155c-7.539,0 -13.651,-6.11 -13.651,-13.65v-14.51c0,-7.54 6.112,-13.65 13.651,-13.65z" stroke="#141414" stroke-width="1.70942"/>
<path id="Rectangle 56" d="M16.8259,62.94h6.687v23.82h-6.687c-6.578,0 -11.91,-5.34 -11.91,-11.91c0,-6.58 5.332,-11.91 11.91,-11.91z" stroke="#141414" stroke-width="1.70942"/>
<path id="Vector 31" d="M47.8679,53.67v42.35" stroke="#141414" stroke-width="1.70942"/>
</g></svg>