<svg viewBox="0 0 25 37.5" fill="none" xmlns="http://www.w3.org/2000/svg" xmlns:xlink="http://www.w3.org/1999/xlink" x="0" y="0"><g id="Vector_8">
<path d="M12.502,0c-1.643,0 -3.27,0.32 -4.789,0.94c-1.519,0.63 -2.899,1.55 -4.061,2.71c-1.162,1.16 -2.083,2.54 -2.71,4.06c-0.626,1.52 -0.946,3.15 -0.942,4.79c0,4.97 2.553,8.3 3.83,9.35c0.114,0.1 0.23,0.21 0.348,0.32c0.735,0.69 1.518,1.43 2.165,2.23c0.762,0.94 1.157,1.77 1.157,2.48v1.87c0,0.69 0.56,1.25 1.25,1.25c0.69,0 1.25,-0.56 1.25,-1.25v-1.87c0,-1.59 -0.841,-2.98 -1.713,-4.06c-0.765,-0.94 -1.69,-1.81 -2.418,-2.49h-0.001c-0.113,-0.1 -0.221,-0.21 -0.322,-0.3c-1.924,-1.82 -3.046,-4.56 -3.046,-7.53v0c-0.004,-1.32 0.252,-2.62 0.754,-3.83c0.501,-1.22 1.237,-2.32 2.166,-3.25c0.929,-0.93 2.032,-1.67 3.247,-2.17c1.214,-0.5 2.516,-0.75 3.83,-0.75h0.003c5.579,0 10,4.44 10,10c0,3.08 -1.066,5.64 -3.051,7.53c-0.115,0.11 -0.238,0.23 -0.366,0.35c-0.721,0.68 -1.626,1.54 -2.374,2.46c-0.868,1.08 -1.709,2.46 -1.709,4.04v1.87c0,0.69 0.56,1.25 1.25,1.25c0.69,0 1.25,-0.56 1.25,-1.25v-1.87c0,-0.7 0.391,-1.52 1.154,-2.46c0.633,-0.79 1.395,-1.51 2.12,-2.2h0.004c0.134,-0.13 0.267,-0.25 0.398,-0.38c2.522,-2.41 3.824,-5.64 3.824,-9.34c0,-6.94 -5.536,-12.5 -12.498,-12.5z" fill="currentColor"/>
<path d="M8.75,36.25c0,-0.69 0.56,-1.25 1.25,-1.25h5c0.69,0 1.25,0.56 1.25,1.25c0,0.69 -0.56,1.25 -1.25,1.25h-5c-0.69,0 -1.25,-0.56 -1.25,-1.25z" fill="currentColor"/>
<path d="M8.75,31.25c-0.69,0 -1.25,0.56 -1.25,1.25c0,0.69 0.56,1.25 1.25,1.25h7.5c0.69,0 1.25,-0.56 1.25,-1.25c0,-0.69 -0.56,-1.25 -1.25,-1.25z" fill="currentColor"/>
<path d="M13.75,19.79c0.757,-0.24 1.609,-0.67 2.461,-1.27c0.469,-0.34 0.664,-1.06 0.351,-1.61c-0.139,-0.24 -0.507,-0.66 -1.054,-0.66c-0.384,0 -0.533,0.09 -0.728,0.21c-0.302,0.18 -0.716,0.44 -2.28,0.53c-1.564,-0.09 -1.978,-0.35 -2.28,-0.53c-0.195,-0.12 -0.344,-0.21 -0.728,-0.21c-0.547,0 -0.915,0.42 -1.055,0.66c-0.312,0.55 -0.117,1.27 0.352,1.61c0.852,0.6 1.704,1.03 2.461,1.27v8.96c0,0.69 0.56,1.25 1.25,1.25c0.69,0 1.25,-0.56 1.25,-1.25z" fill="currentColor"/>
</g></svg>