<svg viewBox="0 0 193.2137 178" fill="none" xmlns="http://www.w3.org/2000/svg" xmlns:xlink="http://www.w3.org/1999/xlink" x="0" y="0"><g id="design">
<path id="Vector 23" d="M96.9898,65.8l-39.071,49.54c-2.204,2.79 -2.866,6.5 -1.765,9.88l6.114,18.8c1.427,4.39 5.515,7.36 10.127,7.36h46.954c4.403,0 8.352,-2.71 9.936,-6.82l7.382,-19.15c1.341,-3.48 0.765,-7.4 -1.518,-10.35zM96.9898,65.8v43.36" stroke="#141414" stroke-width="1.7015"/>
<path id="Ellipse 9" d="M96.2278,109.63c6.882,0 12.461,5.58 12.462,12.46c0,6.88 -5.58,12.46 -12.462,12.46c-6.882,0 -12.461,-5.58 -12.461,-12.46c0,-6.88 5.579,-12.46 12.461,-12.46z" stroke="#141414" stroke-width="1.7015"/>
<circle id="Ellipse 12" cx="152.89880000000005" cy="95.09000000000015" r="9.79882" stroke="#141414" stroke-width="1.7015"/>
<circle id="Ellipse 13" cx="41.077800000000025" cy="95.09000000000015" r="9.79882" stroke="#141414" stroke-width="1.7015"/>
<path id="Ellipse 10" d="M25.1038,18.35c8.353,0 15.123,6.77 15.123,15.12c0,8.35 -6.77,15.12 -15.123,15.12c-8.352,0 -15.124,-6.77 -15.124,-15.12c0,-8.35 6.772,-15.12 15.124,-15.12z" stroke="#141414" stroke-width="1.7015"/>
<path id="Ellipse 11" d="M169.6338,18.35c8.352,0 15.123,6.77 15.123,15.12c0,8.35 -6.771,15.12 -15.123,15.12c-8.353,0 -15.124,-6.77 -15.124,-15.12c0,-8.35 6.771,-15.12 15.124,-15.12z" stroke="#141414" stroke-width="1.7015"/>
<rect id="Rectangle 52" x="55.62180000000001" y="151.4699999999998" width="82.7344" height="19.5976" rx="9.79882" stroke="#141414" stroke-width="1.7015"/>
<rect id="Rectangle 53" x="83.76679999999999" y="19.86999999999989" width="26.4438" height="26.4438" rx="5.23472" stroke="#141414" stroke-width="1.7015"/>
<path id="Vector 24" d="M83.6758,33.47h-42.979" stroke="#141414" stroke-width="1.7015"/>
<path id="Vector 25" d="M154.0408,33.47h-42.978" stroke="#141414" stroke-width="1.7015"/>
<path id="Vector 26" d="M84.0568,34.99c-13.185,3.04 -40.012,17.27 -41.837,49.83" stroke="#141414" stroke-width="1.7015"/>
<path id="Vector 27" d="M111.0598,34.99c13.185,3.04 40.012,17.27 41.837,49.83" stroke="#141414" stroke-width="1.7015"/>
</g></svg>