<svg viewBox="0 0 77 55" fill="none" xmlns="http://www.w3.org/2000/svg" xmlns:xlink="http://www.w3.org/1999/xlink" x="0" y="0"><g id="logo on solutions-09 1">
<path id="Vector_11" d="M68.85,40.684c0.01,0.9225 -0.21,1.8325 -0.64,2.6486c-0.06,0.0643 -0.09,0.1601 -0.16,0.2156c0,0.0535 -0.01,0.107 -0.03,0.1558c-0.02,0.0488 -0.05,0.0915 -0.1,0.1242c-0.87,1.0721 -1.92,1.8275 -3.32,2.0684c-1.02,0.182 -2.06,0.0561 -3,-0.3616c-0.95,-0.4176 -1.74,-1.1078 -2.29,-1.9817c-1.86,-3.0269 -3.78,-6.0223 -5.68,-9.0315c-1.88,-2.9828 -3.71,-6.0046 -5.64,-8.9546c-0.09,-0.1438 -0.19,-0.2838 -0.29,-0.4212c-0.69,-0.9384 -1.25,-1.9991 -1.86,-2.9942c-0.15,-0.2333 -0.29,-0.5044 -0.62,-0.4035c-0.34,0.1009 -0.42,0.3695 -0.42,0.6949c0,1.6534 0.02,3.3056 0,4.9591c-0.02,2.144 -1.75,3.7281 -3.89,3.583c-0.95,-0.0876 -1.84,-0.5348 -2.47,-1.2511c-0.9,-0.9988 -0.85,-2.1302 -0.85,-3.3737v-1.9246c0,-3.095 -0.16,-6.2241 0.04,-9.314c0.1,-1.7241 0.83,-3.1064 2.17,-4.2061c1.42,-1.1604 5.66,-1.1351 7.09,-0.0404c0.97,0.7416 1.58,1.7127 2.19,2.7065c3.79,6.1169 7.58,12.2333 11.37,18.3494c0.16,0.261 0.32,0.5574 0.7,0.5725c0.43,-0.232 0.39,-0.6407 0.39,-1.0405c0,-3.554 0,-7.1077 0,-10.6609c0,-1.3579 0,-2.7154 0,-4.0725c0,-0.6785 0,-1.3575 0,-2.0368c0,-0.6571 -0.04,-1.2612 0.14,-1.9007c0.06,-0.2135 0.13,-0.424 0.2,-0.6306c0.18,-0.4218 0.43,-0.8038 0.76,-1.1221c0.32,-0.3184 0.71,-0.5662 1.14,-0.7281c1.13,-0.4452 2.46,-0.3569 3.48,0.333c0.61,0.4222 1.07,1.0271 1.32,1.7278c0.19,0.4416 0.28,0.9202 0.27,1.4012c-0.01,8.9714 -0.01,17.9416 0,26.9104z" fill="currentColor"/>
<path id="Vector_12" d="M39.5,45.3442c-2.59,-1.8615 -2.43,-5.2744 -0.23,-6.9139c1.4,-1.0393 2.93,-1.1906 4.49,-0.3784c1.5,0.7807 2.29,2.0381 2.29,3.7521c0,0.2926 -0.02,0.5852 -0.02,0.8828c-0.07,0.4238 -0.14,0.8476 -0.47,1.1654c-1.1,1.7859 -3.19,2.7746 -5.66,1.7379c-0.16,-0.0374 -0.3,-0.1235 -0.4,-0.2459z" fill="currentColor"/>
<path id="Vector_13" d="M35.75,24.6276c0,-0.9396 -0.03,-1.8792 -0.05,-2.8188c0.06,-0.8715 -0.18,-1.7014 -0.4,-2.5224c-0.25,-0.9809 -0.62,-1.9298 -1.09,-2.8289c-0.49,-0.9274 -1.08,-1.7964 -1.76,-2.5905c-0.54,-0.6396 -1.13,-1.2305 -1.78,-1.7657c-0.42,-0.35 -0.87,-0.6662 -1.34,-0.9459c-0.37,-0.2195 -0.75,-0.4267 -1.14,-0.6218c-0.75,-0.3837 -1.54,-0.7043 -2.34,-0.9585c-2.35,-0.7265 -4.68,-0.7845 -7.06,-0.3204c-0.22,0.0429 -0.43,0.0908 -0.65,0.1451c-3.14,0.7983 -5.77,2.67 -7.71,5.2516c-1.65,2.1777 -2.57,4.8139 -2.65,7.5421c-0.11,3.9185 -0.04,7.8447 -0.02,11.767c0.01,1.7657 0.46,3.4381 1.18,5.0449c1.2,2.704 3.13,4.7711 5.61,6.3438c1.67,1.0356 3.56,1.65 5.51,1.7897c1.11,0.075 2.22,0.0801 3.32,0.0151c0.25,-0.0151 0.49,-0.0357 0.74,-0.0618c0.92,-0.0983 1.87,-0.4174 2.73,-0.7491c2.5,-0.9647 4.67,-2.6286 6.24,-4.7926c1.56,-2.1151 2.49,-4.4874 2.61,-7.1422c0.01,-0.3544 0.05,-0.7088 0.05,-1.0632c0,-2.9067 0,-5.8125 0,-8.7175zM21.97,35.8523c-0.35,0 -0.7,-0.0138 -1.04,-0.0428c-0.09,-0.0059 -0.17,-0.0135 -0.26,-0.0227c-0.21,-0.0227 -0.43,-0.0492 -0.63,-0.0808l-0.24,-0.039l-0.17,-0.0316c-0.77,-0.142 -1.52,-0.3561 -2.25,-0.6394c-0.27,-0.1026 -0.53,-0.2144 -0.79,-0.3355c-0.06,-0.0378 -0.12,-0.0794 -0.18,-0.1261c-0.12,-0.0442 -0.23,-0.0896 -0.34,-0.1387c-1.25,-0.5424 -2.29,-1.3773 -3.23,-2.3421c-2.41,-2.4871 -3.66,-5.4686 -3.57,-8.8789v-0.0303c0,-2.512 0.75,-4.9671 2.15,-7.0549c1.39,-2.0878 3.38,-3.7146 5.7,-4.6747c2.32,-0.9601 4.87,-1.2104 7.33,-0.7193c2.47,0.4912 4.73,1.7017 6.5,3.4786c1.78,1.7769 2.99,4.0403 3.48,6.5042c0.49,2.4639 0.23,5.0175 -0.73,7.3382c-0.96,2.3206 -2.59,4.304 -4.67,5.6994c-2.09,1.3954 -4.55,2.1402 -7.06,2.1402z" fill="currentColor"/>
<path id="Vector_14" d="M8.62,35.2293c0.05,0 0.08,-3.1322 0.08,-6.9959c0,-3.8637 -0.03,-6.9959 -0.08,-6.9959c-0.04,0 -0.08,3.1322 -0.08,6.9959c0,3.8637 0.04,6.9959 0.08,6.9959z" fill="currentColor"/>
</g></svg>